<?xml version="1.0" standalone="no"?>
<!DOCTYPE svg PUBLIC "-//W3C//DTD SVG 20010904//EN"
 "http://www.w3.org/TR/2001/REC-SVG-20010904/DTD/svg10.dtd">
<svg version="1.0" xmlns="http://www.w3.org/2000/svg"
 width="2000.000000pt" height="2000.000000pt" viewBox="0 0 2000.000000 2000.000000"
 preserveAspectRatio="xMidYMid meet">

<g transform="translate(0.000000,2000.000000) scale(0.100000,-0.100000)"
fill="#000000" stroke="none">
<path d="M9700 14638 c-343 -7 -598 -25 -920 -64 -125 -14 -155 -19 -345 -49
-301 -47 -764 -149 -1005 -219 -425 -126 -782 -252 -952 -337 -32 -16 -63 -29
-69 -29 -17 0 -377 -179 -516 -257 -153 -85 -399 -237 -497 -307 -42 -31 -79
-56 -82 -56 -3 0 -41 -28 -86 -62 -44 -35 -92 -72 -107 -83 -165 -122 -510
-457 -657 -636 -291 -355 -528 -771 -664 -1164 -25 -73 -40 -121 -75 -245 -27
-96 -35 -128 -49 -200 -58 -300 -70 -443 -63 -755 8 -338 22 -474 71 -725 33
-166 32 -160 116 -420 16 -47 33 -96 38 -110 6 -14 20 -50 32 -80 132 -330
338 -672 584 -971 215 -262 436 -479 697 -684 35 -27 66 -52 69 -56 34 -41
494 -349 625 -418 22 -11 72 -39 110 -61 106 -59 534 -270 550 -270 3 0 34
-13 68 -29 34 -15 125 -52 202 -81 77 -29 149 -56 160 -60 11 -5 49 -18 85
-30 36 -11 74 -25 85 -30 19 -8 119 -39 245 -75 30 -8 111 -31 180 -51 69 -20
144 -40 168 -45 24 -5 47 -11 52 -14 5 -3 28 -9 52 -14 24 -5 77 -17 118 -26
121 -26 224 -46 435 -86 46 -8 178 -29 315 -48 54 -8 166 -21 345 -41 444 -49
1509 -49 1945 0 47 5 148 16 225 25 77 9 163 20 190 25 28 5 75 12 105 15 30
3 75 10 100 15 25 5 86 16 135 25 50 9 110 21 135 26 25 5 70 14 100 19 152
27 262 53 410 94 52 15 109 31 125 36 17 4 57 15 90 25 33 9 78 21 100 27 22
5 49 13 60 18 11 4 40 15 65 23 45 15 196 69 360 129 47 17 89 35 95 40 5 4
15 8 21 8 7 0 43 14 81 31 37 17 100 45 138 62 39 17 156 75 260 127 599 304
1064 640 1480 1070 142 147 180 192 330 385 56 73 141 198 205 305 60 99 230
426 230 442 0 4 11 31 24 60 13 29 36 87 50 128 15 41 31 84 36 95 5 11 16 47
25 80 10 33 23 80 30 105 23 75 63 257 84 375 69 389 70 1013 2 1310 -75 326
-104 425 -187 636 -70 178 -162 366 -241 491 -12 21 -23 40 -23 43 0 8 -166
251 -205 300 -123 156 -159 200 -230 280 -341 382 -803 751 -1275 1018 -228
129 -349 190 -575 292 -258 116 -661 257 -1060 370 -27 8 -72 21 -100 29 -132
39 -518 125 -720 161 -49 9 -112 20 -140 25 -121 22 -350 55 -525 75 -114 13
-461 36 -605 40 -297 10 -359 10 -665 3z m890 -233 c102 -8 221 -19 265 -24
44 -6 143 -17 220 -26 77 -9 163 -20 190 -25 28 -5 73 -12 100 -15 28 -3 73
-10 100 -15 28 -5 97 -16 155 -25 58 -9 132 -22 165 -30 58 -14 271 -64 385
-91 30 -7 71 -17 90 -22 19 -6 87 -24 150 -41 204 -54 643 -204 795 -271 67
-29 95 -41 140 -58 135 -53 540 -254 625 -312 14 -9 32 -20 40 -24 53 -23 284
-171 423 -270 210 -150 499 -396 642 -548 58 -61 229 -256 258 -293 108 -141
277 -379 277 -391 0 -2 11 -21 23 -42 132 -208 268 -530 346 -812 89 -326 126
-774 93 -1125 -24 -247 -64 -485 -107 -635 -9 -30 -21 -73 -26 -95 -9 -38 -31
-105 -49 -150 -4 -11 -14 -36 -20 -55 -7 -19 -19 -48 -25 -65 -7 -16 -23 -55
-35 -85 -55 -133 -108 -239 -225 -442 -84 -146 -241 -362 -376 -517 -76 -86
-365 -374 -451 -447 -186 -160 -461 -360 -616 -449 -10 -5 -31 -19 -47 -31
-17 -11 -37 -24 -45 -27 -8 -4 -24 -13 -35 -19 -63 -41 -143 -88 -149 -88 -3
0 -25 -12 -48 -26 -89 -57 -626 -314 -654 -314 -3 0 -20 -7 -37 -15 -140 -64
-634 -228 -782 -260 -33 -7 -96 -23 -140 -34 -44 -12 -123 -30 -175 -41 -52
-11 -126 -27 -165 -35 -38 -9 -119 -24 -180 -34 -60 -11 -126 -22 -145 -25
-73 -13 -425 -60 -565 -76 -44 -5 -163 -14 -265 -19 -102 -6 -249 -15 -326
-21 -184 -13 -589 -13 -774 0 -80 6 -233 15 -340 21 -197 10 -261 16 -470 43
-63 9 -151 20 -195 25 -44 6 -102 15 -130 20 -27 6 -95 18 -150 27 -170 28
-473 91 -500 104 -11 5 -42 14 -70 19 -103 20 -151 31 -175 40 -14 5 -54 17
-90 27 -65 17 -453 143 -500 162 -14 5 -43 17 -65 25 -112 43 -243 97 -270
111 -16 9 -33 16 -38 16 -8 0 -128 56 -287 133 -92 45 -257 133 -385 206 -173
98 -518 332 -615 415 -20 17 -56 47 -80 66 -188 148 -473 432 -620 616 -8 11
-31 39 -52 64 -145 178 -307 438 -417 665 -40 83 -76 158 -82 167 -5 10 -9 23
-9 29 0 6 -6 25 -14 42 -7 18 -21 55 -31 82 -9 28 -20 59 -25 70 -20 48 -74
252 -110 415 -55 255 -75 635 -49 945 62 759 379 1450 939 2050 179 192 433
418 618 551 400 286 796 509 1202 676 52 22 104 43 115 48 11 5 56 23 100 40
86 33 99 38 158 64 21 9 46 16 57 16 10 0 21 4 24 9 4 5 24 12 46 16 22 4 42
10 45 15 3 4 21 11 41 15 20 3 44 10 53 15 38 21 309 98 511 146 36 8 81 19
100 24 99 24 478 100 550 111 225 32 387 53 610 79 95 11 281 28 430 39 186
14 942 11 1150 -4z"/>
<path d="M9960 13745 c-14 -17 -46 -20 -55 -5 -9 15 -145 12 -193 -5 -57 -20
-126 -78 -161 -135 -49 -81 -64 -143 -64 -270 0 -130 18 -210 61 -280 75 -121
241 -172 363 -112 23 11 43 16 51 11 22 -15 64 -10 81 9 14 15 17 43 17 158 1
106 4 144 15 158 16 22 19 63 7 84 -7 9 -40 12 -133 10 -120 -3 -124 -4 -136
-27 -13 -28 -2 -58 25 -68 44 -15 52 -34 52 -112 -1 -96 -11 -111 -77 -111
-41 0 -54 5 -75 28 -52 54 -63 102 -63 269 0 108 4 156 13 165 6 6 12 19 12
28 0 9 15 31 34 49 30 29 41 33 85 33 62 0 94 -19 121 -73 25 -48 58 -66 89
-50 19 11 21 20 21 114 0 77 -4 108 -16 125 -17 25 -56 29 -74 7z"/>
<path d="M10228 13744 c-17 -17 -6 -55 24 -83 37 -34 37 -29 19 -256 -29 -379
-25 -354 -53 -378 -34 -29 -43 -60 -23 -81 9 -9 24 -16 33 -16 48 -1 410 -31
428 -36 28 -7 43 13 59 83 21 87 19 150 -4 158 -29 9 -66 -10 -91 -47 -35 -50
-49 -58 -106 -58 -84 0 -84 1 -83 94 1 164 18 192 82 137 68 -60 107 -32 107
75 0 94 -23 116 -77 74 -26 -20 -77 -27 -87 -12 -3 5 -2 57 1 117 l6 107 48
-5 c61 -7 77 -18 114 -75 33 -51 75 -73 103 -56 14 9 17 30 20 110 1 54 -2
106 -7 114 -7 10 -41 16 -123 22 -214 15 -383 20 -390 12z"/>
<path d="M9148 13719 c-27 -16 -22 -55 12 -85 35 -32 46 -80 56 -238 5 -74 4
-107 -4 -105 -5 2 -70 94 -144 204 l-133 200 -89 3 c-67 2 -94 -1 -112 -13
-34 -22 -30 -55 11 -90 l36 -30 10 -125 c37 -446 37 -435 -1 -468 -33 -29 -39
-62 -15 -82 12 -10 40 -11 123 -4 98 8 107 11 118 33 16 31 8 48 -27 66 -41
22 -48 42 -59 157 -19 213 -20 250 -11 246 11 -3 224 -322 256 -381 38 -72 69
-97 118 -97 78 0 75 -42 36 544 l-10 159 30 31 c33 34 38 55 19 74 -15 15
-195 16 -220 1z"/>
<path d="M10923 13709 c-7 -7 -13 -28 -13 -45 0 -25 7 -38 31 -55 36 -25 35
-12 4 -264 -8 -66 -19 -160 -25 -210 -13 -123 -15 -129 -55 -159 -40 -31 -49
-80 -17 -90 52 -15 438 -60 456 -53 18 7 33 57 47 160 13 93 9 107 -30 107
-30 0 -64 -31 -77 -72 -14 -44 -41 -59 -102 -56 l-57 3 1 55 c1 30 9 111 18
180 10 69 22 161 27 205 12 108 27 153 53 161 49 15 74 67 43 92 -7 6 -67 18
-132 26 -66 9 -129 18 -140 21 -11 3 -26 0 -32 -6z"/>
<path d="M8210 13619 c-101 -12 -129 -49 -74 -100 23 -22 25 -29 21 -84 -12
-150 -29 -315 -37 -364 -6 -30 -10 -77 -10 -103 0 -53 -11 -82 -42 -111 -13
-13 -18 -29 -16 -50 l3 -32 85 2 c109 3 140 15 140 55 0 21 -9 38 -30 56 -25
22 -30 34 -30 74 0 54 -1 53 106 63 70 7 72 6 93 -22 18 -22 21 -35 16 -63 -3
-19 -7 -51 -8 -70 l-2 -35 85 2 c47 1 108 8 135 16 44 11 50 17 53 42 3 22 -4
35 -31 60 -36 33 -56 71 -120 225 -30 73 -49 117 -97 225 -5 11 -23 56 -41
100 -18 44 -39 90 -47 103 -16 24 -27 25 -152 11z m109 -361 c22 -53 41 -99
41 -102 0 -4 -91 -26 -107 -26 -8 0 4 207 12 221 9 14 7 18 54 -93z"/>
<path d="M11730 13567 c-93 -26 -160 -86 -212 -189 -65 -127 -83 -320 -41
-450 41 -129 199 -220 326 -189 72 18 143 58 181 103 84 98 133 275 123 443
-5 87 -15 118 -61 183 -58 82 -208 130 -316 99z m149 -149 c39 -40 45 -74 38
-217 -8 -146 -38 -240 -94 -292 -65 -61 -105 -61 -150 -2 -27 35 -28 41 -28
153 0 64 6 136 13 161 39 132 48 152 84 190 50 51 92 53 137 7z"/>
<path d="M7405 13453 c-11 -3 -24 -9 -29 -14 -6 -5 -18 -9 -28 -9 -10 0 -36
-7 -58 -16 -34 -14 -40 -21 -40 -45 0 -22 8 -34 38 -53 32 -20 42 -34 56 -83
10 -32 21 -69 26 -83 22 -63 42 -151 36 -157 -4 -4 -85 71 -181 167 l-174 174
-43 -11 c-150 -39 -178 -53 -178 -88 0 -27 15 -41 53 -50 39 -10 55 -47 133
-305 9 -30 30 -93 45 -140 34 -100 36 -122 8 -159 -30 -40 -18 -81 24 -81 33
0 147 33 187 55 42 23 35 85 -10 85 -42 0 -62 35 -120 208 -31 94 -54 174 -52
177 3 3 97 -85 208 -196 l202 -201 48 7 c52 8 74 20 74 40 0 13 -18 75 -56
190 -13 39 -33 106 -45 150 -11 44 -28 105 -36 135 -44 161 -45 178 -21 221
19 34 20 42 8 64 -13 25 -30 29 -75 18z"/>
<path d="M12780 13300 c-12 -18 -33 -61 -45 -96 -13 -36 -25 -68 -29 -71 -13
-13 -5 -43 13 -53 36 -19 57 -11 89 36 31 43 35 45 74 42 54 -4 67 -24 45 -71
-9 -19 -17 -41 -17 -49 0 -8 -4 -18 -9 -23 -5 -6 -18 -37 -29 -70 -30 -86 -71
-197 -81 -220 -5 -11 -17 -40 -27 -65 -24 -61 -32 -70 -64 -70 -19 0 -30 -7
-38 -25 -21 -46 -8 -57 123 -105 127 -47 148 -47 159 -4 5 17 0 33 -13 50 -20
26 -20 76 0 98 5 6 9 16 9 24 0 8 6 28 14 45 8 18 22 57 32 87 10 30 22 59 26
64 4 6 8 15 8 22 0 7 18 60 41 118 46 118 56 126 104 76 25 -26 28 -37 26 -81
-2 -57 10 -79 45 -79 17 0 28 8 35 28 16 39 40 131 46 173 6 41 -7 53 -92 83
-27 10 -63 24 -80 31 -112 47 -304 125 -322 130 -16 4 -26 -2 -43 -25z"/>
<path d="M6400 13089 c-155 -69 -166 -85 -107 -139 31 -28 35 -37 41 -103 4
-40 13 -121 21 -182 8 -60 20 -159 27 -218 11 -106 11 -110 -12 -151 -19 -35
-21 -46 -11 -64 6 -12 20 -22 31 -22 26 0 171 58 192 77 24 21 5 72 -33 85
-45 15 -66 110 -29 128 20 10 57 26 102 44 37 15 37 15 68 -21 28 -31 30 -39
24 -79 -11 -74 26 -93 109 -55 23 11 68 31 100 45 50 22 57 28 57 53 0 34 -16
53 -44 53 -19 0 -94 76 -153 156 -269 363 -312 416 -335 414 -2 -1 -23 -10
-48 -21z m128 -351 c29 -39 52 -76 52 -82 0 -14 -86 -50 -99 -42 -5 3 -12 41
-16 84 -4 42 -9 85 -11 95 -12 40 26 13 74 -55z"/>
<path d="M13446 13036 c-20 -32 -21 -30 9 -90 22 -47 25 -63 26 -199 0 -82 -1
-149 -3 -151 -1 -1 -43 -32 -93 -67 -118 -86 -176 -119 -208 -119 -14 0 -33
-7 -41 -16 -33 -33 -15 -60 69 -102 115 -57 125 -59 146 -31 14 16 18 34 15
56 -5 38 5 52 87 117 l57 46 0 -99 0 -99 -35 -21 c-45 -26 -53 -47 -29 -71 22
-21 186 -109 225 -120 56 -17 73 26 45 112 -8 24 -17 79 -20 123 -4 44 -9 115
-13 157 -7 90 -7 90 81 151 108 75 166 107 194 107 62 0 91 67 42 95 -25 14
-99 48 -144 65 -29 11 -56 -13 -56 -51 0 -34 -103 -129 -140 -129 -6 0 -10 27
-10 64 0 63 1 65 41 96 31 26 39 38 37 59 -3 27 -15 35 -158 99 -101 45 -105
46 -124 18z"/>
<path d="M5869 12831 c-17 -17 -36 -31 -44 -31 -19 0 -86 -30 -118 -52 -15
-11 -40 -39 -55 -62 -23 -36 -26 -51 -26 -121 0 -70 3 -85 26 -122 30 -45 77
-85 123 -104 17 -6 92 -20 169 -30 162 -21 176 -29 176 -99 0 -49 -10 -63 -63
-90 -36 -18 -88 -1 -134 43 -22 20 -43 30 -64 30 -62 0 -62 -50 1 -141 22 -33
40 -62 40 -66 0 -3 8 -15 17 -26 24 -28 67 -26 86 4 10 14 30 26 51 30 89 17
195 109 216 187 30 110 -31 243 -129 285 -46 19 -167 44 -216 44 -100 0 -159
41 -153 106 2 33 9 42 38 58 35 18 36 18 77 -1 23 -11 57 -30 75 -41 25 -15
39 -18 57 -11 20 8 23 14 18 43 -7 42 -98 190 -121 194 -9 2 -30 -10 -47 -27z"/>
<path d="M12188 12840 c-50 -39 -73 -130 -48 -194 8 -22 5 -28 -20 -48 -23
-18 -28 -28 -23 -46 5 -20 10 -22 32 -17 45 11 89 44 126 94 28 39 36 62 41
109 6 58 5 62 -24 91 -36 36 -50 38 -84 11z"/>
<path d="M5155 10894 c-70 -18 -140 -75 -177 -148 -18 -33 -23 -63 -26 -151
-3 -95 -1 -117 18 -165 29 -74 77 -137 195 -257 56 -56 111 -122 123 -146 23
-47 29 -126 13 -170 -35 -92 -149 -86 -195 9 -10 22 -22 46 -26 55 -5 9 -14
35 -20 58 -12 45 -41 81 -65 81 -8 0 -24 -9 -34 -19 -18 -18 -19 -31 -14 -193
3 -95 10 -179 16 -185 14 -18 67 -16 88 3 17 15 22 14 66 -7 69 -34 188 -34
256 1 97 49 152 173 144 328 -8 168 -25 201 -193 372 -144 147 -174 195 -174
279 0 62 25 91 80 91 32 0 43 -6 67 -35 27 -32 54 -95 67 -157 13 -56 83 -61
111 -8 21 41 21 269 0 310 -20 38 -59 49 -97 27 -27 -15 -30 -15 -63 4 -33 20
-121 33 -160 23z"/>
<path d="M15221 10893 c-37 -8 -96 -48 -131 -90 -50 -60 -70 -124 -70 -226 0
-159 38 -233 205 -397 111 -109 124 -128 151 -205 13 -40 14 -54 3 -96 -21
-83 -79 -114 -145 -78 -29 15 -71 94 -98 181 -20 66 -36 83 -71 74 -48 -12
-54 -36 -48 -209 5 -127 9 -162 23 -179 21 -26 69 -27 87 -2 13 18 15 18 55
-5 29 -16 63 -25 108 -29 127 -9 206 34 258 141 58 118 54 295 -9 419 -12 24
-79 102 -148 173 -138 143 -156 167 -166 237 -13 86 11 128 73 128 20 0 47 -8
59 -18 24 -19 56 -85 73 -149 10 -41 40 -73 68 -73 7 0 24 11 37 25 24 23 25
28 25 172 -1 101 -5 153 -13 164 -20 26 -54 32 -88 15 -30 -15 -34 -15 -64 4
-33 20 -128 33 -174 23z"/>
<path d="M5987 10881 c-41 -12 -49 -80 -13 -114 54 -50 56 -66 56 -497 0 -429
-1 -440 -54 -489 -28 -26 -35 -76 -16 -112 10 -18 24 -19 300 -19 276 0 290 1
300 19 6 11 10 90 10 186 0 96 -4 175 -10 186 -16 29 -57 24 -91 -12 -16 -17
-29 -41 -29 -53 0 -35 -30 -129 -48 -148 -11 -14 -31 -18 -77 -18 -50 0 -65 4
-71 18 -12 26 -16 469 -6 695 l8 197 32 33 c21 22 32 43 32 62 0 57 -7 60
-165 65 -80 3 -151 3 -158 1z"/>
<path d="M6702 10874 c-29 -21 -19 -71 24 -115 l39 -40 0 -449 0 -449 -32 -33
c-26 -27 -33 -42 -33 -75 0 -22 6 -46 14 -52 9 -8 96 -11 297 -9 l284 3 7 40
c4 22 10 93 14 157 7 125 2 148 -38 148 -23 0 -78 -36 -78 -51 0 -19 -48 -115
-63 -127 -10 -9 -39 -12 -84 -10 l-68 3 -3 188 -2 187 38 0 c31 0 41 -5 55
-30 15 -24 25 -30 54 -30 22 0 41 7 49 18 18 23 19 253 2 270 -23 23 -56 13
-88 -29 -29 -35 -37 -40 -69 -37 l-36 3 -3 174 c-1 96 2 179 7 184 5 5 30 9
55 9 56 1 85 -22 115 -92 32 -75 77 -98 121 -62 22 18 22 18 10 160 -12 132
-14 143 -34 147 -48 11 -539 10 -554 -1z"/>
<path d="M10392 10863 c-20 -31 -9 -66 33 -105 l35 -31 0 -454 0 -454 -40 -39
c-22 -22 -40 -46 -40 -55 0 -20 19 -57 34 -67 6 -4 75 -8 153 -8 l142 0 21 27
c26 34 20 68 -21 105 l-29 27 0 181 c0 153 2 182 15 187 22 8 53 -23 65 -66
16 -53 46 -177 60 -246 45 -219 41 -215 189 -215 70 0 111 4 119 12 7 7 12 30
12 52 0 34 -6 46 -38 76 -33 30 -43 51 -70 140 -50 162 -63 201 -89 252 -12
26 -23 49 -23 51 0 3 18 16 40 31 77 50 120 152 120 281 -1 130 -56 238 -147
287 -59 32 -164 46 -387 50 -134 3 -139 2 -154 -19z m360 -133 c30 0 75 -48
92 -99 33 -101 12 -241 -43 -280 -23 -17 -67 -25 -108 -22 -10 1 -13 48 -13
199 0 109 3 202 7 206 4 4 17 5 28 2 11 -3 28 -6 37 -6z"/>
<path d="M12766 10856 c-90 -50 -136 -116 -185 -268 -39 -122 -40 -463 0 -643
40 -184 119 -278 255 -305 185 -36 334 79 387 300 59 248 38 607 -45 778 -56
116 -146 172 -276 171 -68 0 -84 -4 -136 -33z m192 -159 c12 -13 31 -59 43
-103 19 -70 21 -107 22 -334 1 -275 -8 -342 -55 -414 -32 -48 -50 -58 -87 -45
-86 30 -120 219 -101 554 11 190 36 299 78 348 22 25 74 22 100 -6z"/>
<path d="M13372 10879 c-45 -17 -39 -73 14 -126 l34 -34 0 -449 0 -448 -35
-33 c-28 -27 -35 -41 -35 -71 0 -60 21 -68 181 -68 119 0 138 2 152 18 27 30
21 75 -13 105 l-30 27 -2 170 c-1 94 -2 178 -2 188 -1 10 7 18 20 20 24 3 56
-34 68 -78 3 -14 13 -50 22 -80 8 -30 22 -89 29 -130 44 -238 46 -240 195
-240 77 0 93 3 110 20 34 34 26 79 -20 123 -22 20 -40 45 -40 55 0 10 -4 22
-9 27 -5 6 -23 55 -41 110 -17 55 -45 133 -60 174 l-29 75 40 34 c104 89 138
202 107 358 -13 67 -62 150 -111 186 -65 49 -112 60 -272 65 -82 2 -173 5
-201 6 -28 2 -61 0 -72 -4z m367 -165 c51 -30 66 -75 66 -198 0 -89 -3 -116
-18 -137 -23 -34 -57 -51 -104 -53 l-38 -1 -3 203 -2 202 36 0 c20 0 48 -7 63
-16z"/>
<path d="M4523 10869 c-19 -7 -23 -16 -23 -50 0 -33 7 -49 35 -80 l35 -39 0
-430 c0 -302 -3 -437 -12 -454 -21 -47 -85 -47 -106 -1 -7 14 -12 56 -12 93 0
80 -15 117 -52 133 -37 15 -94 3 -113 -24 -28 -41 -17 -180 21 -264 51 -113
204 -164 326 -109 60 27 96 62 130 126 23 45 23 48 28 490 6 465 7 481 50 495
40 13 40 92 0 112 -28 15 -270 16 -307 2z"/>
<path d="M7622 10864 c-28 -20 -29 -65 -1 -110 20 -33 20 -36 5 -127 -14 -84
-31 -166 -57 -287 -5 -25 -16 -81 -24 -125 -57 -314 -79 -395 -121 -436 -26
-25 -34 -41 -34 -69 0 -56 10 -60 147 -60 111 0 123 2 133 19 20 39 12 85 -21
117 -30 28 -31 30 -25 98 4 38 9 72 12 77 3 5 52 9 109 9 116 0 110 5 121 -89
6 -58 5 -62 -25 -96 -32 -37 -40 -79 -21 -116 10 -18 23 -19 170 -19 178 0
180 1 180 74 0 27 -6 39 -29 55 -15 11 -33 33 -39 48 -14 39 -48 210 -96 483
-16 95 -44 241 -58 310 -5 25 -15 82 -22 126 -17 101 -27 120 -67 128 -65 13
-213 7 -237 -10z m142 -421 c3 -27 13 -86 22 -133 9 -47 17 -105 17 -130 l2
-45 -64 -3 -64 -3 6 53 c4 29 14 89 22 133 9 44 19 96 21 115 11 77 29 82 38
13z"/>
<path d="M8122 10868 c-16 -20 -21 -52 -26 -180 -7 -137 2 -168 45 -168 39 0
59 24 59 73 0 70 60 141 104 124 14 -6 16 -57 16 -454 l0 -449 -35 -33 c-26
-24 -35 -41 -35 -65 0 -59 18 -66 183 -66 134 0 147 2 157 19 19 37 11 74 -22
109 l-33 33 0 457 0 457 25 -4 c53 -7 90 -56 90 -121 0 -70 73 -121 100 -71
16 31 13 303 -4 327 -14 18 -31 19 -314 22 -236 2 -301 0 -310 -10z"/>
<path d="M8839 10859 c-27 -27 -19 -62 24 -107 l32 -33 0 -455 0 -455 -34 -29
c-28 -22 -35 -35 -35 -63 0 -64 9 -67 173 -67 101 0 151 4 159 12 7 7 12 30
12 52 0 30 -7 47 -27 69 l-28 28 -3 190 -3 189 105 0 106 0 0 -189 0 -190 -35
-27 c-30 -23 -35 -32 -35 -68 0 -23 5 -47 12 -54 17 -17 309 -17 326 0 7 7 12
30 12 53 0 32 -6 46 -30 68 l-30 29 0 453 0 454 30 34 c35 40 39 85 12 110
-15 14 -42 17 -159 17 -123 0 -142 -2 -156 -18 -10 -10 -17 -26 -17 -35 0 -22
21 -67 31 -67 5 0 15 -13 24 -30 13 -24 15 -62 13 -202 l-3 -173 -102 -3 -103
-3 0 171 c0 176 6 208 44 239 10 9 16 30 16 57 0 59 -15 64 -181 64 -117 0
-131 -2 -150 -21z"/>
<path d="M9680 10861 c-18 -35 -11 -60 30 -102 l40 -41 0 -439 c0 -300 -4
-446 -11 -462 -6 -14 -22 -30 -35 -36 -21 -9 -24 -18 -24 -60 0 -29 6 -53 14
-60 9 -8 99 -11 307 -9 l294 3 12 110 c17 161 16 199 -5 218 -10 10 -28 17
-39 17 -24 0 -70 -43 -78 -74 -12 -41 -34 -82 -53 -100 -16 -13 -34 -16 -88
-14 -68 3 -69 4 -75 33 -4 17 -7 101 -8 188 l-1 157 39 0 c33 0 43 -5 61 -30
26 -37 82 -43 100 -11 5 11 10 74 10 140 0 111 -2 121 -20 131 -29 15 -56 4
-86 -36 -21 -27 -33 -34 -60 -34 -19 0 -34 3 -35 8 -1 11 -1 335 0 350 1 8 20
12 59 12 68 0 82 -11 122 -93 36 -75 102 -99 130 -48 11 22 -8 270 -23 289 -7
9 -77 12 -288 12 -265 0 -279 -1 -289 -19z"/>
<path d="M11481 10861 c-30 -30 -26 -72 8 -115 29 -37 34 -53 61 -211 17 -103
39 -223 50 -280 10 -47 18 -98 41 -260 5 -38 13 -88 18 -110 5 -22 15 -74 21
-115 18 -113 25 -120 115 -120 93 0 98 6 120 150 28 185 47 323 54 389 7 73
26 92 34 34 2 -21 14 -94 26 -163 12 -69 31 -177 41 -240 26 -151 36 -164 123
-168 37 -2 75 2 85 7 20 11 25 39 62 326 11 83 27 186 35 230 17 86 42 233 55
330 18 134 29 178 55 205 17 18 25 37 25 62 0 58 -23 68 -157 68 -101 0 -113
-2 -123 -19 -20 -38 -12 -71 25 -104 38 -34 43 -61 25 -139 -5 -24 -15 -86
-21 -138 -6 -52 -15 -120 -19 -150 -4 -30 -11 -79 -15 -108 -10 -65 -27 -63
-37 4 -4 27 -21 128 -38 224 -18 96 -36 202 -41 235 -5 33 -14 73 -19 89 -6
16 -10 39 -10 52 0 44 -74 70 -115 40 -18 -13 -20 -22 -50 -216 -27 -176 -45
-285 -56 -340 -5 -30 -13 -77 -16 -103 -7 -68 -27 -54 -35 24 -6 59 -24 193
-48 349 -16 105 -13 151 11 176 24 25 30 87 11 107 -9 8 -57 13 -147 15 -124
3 -135 2 -154 -17z"/>
<path d="M14177 10866 c-9 -10 -17 -33 -17 -52 0 -28 8 -42 38 -69 l37 -35 3
-440 3 -440 -41 -42 c-45 -48 -51 -82 -20 -116 19 -21 30 -22 156 -22 74 0
144 5 155 10 31 17 26 86 -8 123 -27 28 -28 31 -31 169 -3 113 0 150 13 185 9
23 21 43 26 43 9 0 38 -60 62 -130 9 -25 27 -78 41 -117 32 -88 33 -133 6
-158 -24 -22 -26 -72 -4 -103 14 -21 21 -22 168 -22 105 0 156 4 164 12 7 7
12 32 12 56 0 39 -5 49 -39 81 -33 30 -49 63 -106 211 -38 96 -85 217 -106
268 -41 101 -41 103 7 182 11 19 36 62 54 95 18 33 43 74 56 92 13 17 24 36
24 41 0 5 23 30 51 56 48 44 51 50 46 83 -4 20 -12 40 -19 45 -15 9 -258 11
-282 2 -8 -3 -18 -22 -22 -41 -5 -27 -2 -41 15 -63 32 -44 27 -86 -20 -165
-59 -100 -78 -133 -106 -187 -14 -26 -29 -48 -35 -48 -6 0 -8 67 -6 174 l3
175 28 28 c30 32 37 92 14 111 -7 6 -78 14 -158 18 -129 6 -147 5 -162 -10z"/>
<path d="M5293 9003 c-8 -3 -13 -23 -13 -51 l0 -47 -154 -152 c-112 -111 -161
-153 -178 -153 -28 0 -48 -17 -48 -41 0 -15 117 -131 153 -151 23 -12 41 9 41
51 1 39 27 77 115 168 11 12 22 6 75 -40 33 -30 61 -60 61 -67 0 -6 -25 -41
-55 -76 -38 -43 -62 -64 -78 -64 -34 0 -62 -18 -62 -39 0 -20 109 -127 153
-150 21 -11 29 -12 42 -1 17 14 20 56 5 65 -14 9 -1 30 62 101 29 34 78 91
108 128 114 139 121 146 149 146 32 0 51 16 51 45 0 13 -22 37 -67 70 -38 28
-76 54 -85 59 -27 14 -48 -11 -48 -58 0 -36 -7 -48 -51 -93 -28 -29 -56 -53
-62 -53 -7 1 -36 25 -66 54 l-54 54 58 61 c32 34 66 61 75 61 23 0 52 34 45
52 -7 17 -139 128 -152 127 -4 0 -14 -3 -20 -6z"/>
<path d="M14469 8893 c-37 -31 -58 -51 -77 -75 -19 -23 1 -58 32 -58 28 0 42
-15 52 -54 4 -16 13 -41 20 -55 8 -14 14 -32 14 -39 0 -7 4 -20 10 -30 5 -9
16 -35 26 -57 25 -61 31 -76 55 -130 21 -46 25 -76 19 -149 -2 -27 12 -46 37
-46 19 0 143 120 143 139 0 24 -20 41 -46 41 -25 0 -64 43 -64 70 0 22 112
120 138 120 21 0 52 -29 52 -49 0 -22 30 -71 44 -71 23 0 146 138 146 164 0
32 -22 48 -54 40 -24 -6 -66 14 -181 83 -11 6 -33 19 -50 27 -16 8 -59 33 -95
55 -133 82 -165 101 -177 101 -6 0 -26 -12 -44 -27z m149 -195 c6 -7 31 -22
56 -33 25 -11 46 -25 46 -30 0 -20 -64 -68 -78 -58 -22 13 -64 133 -48 133 8
0 18 -6 24 -12z"/>
<path d="M14128 8590 c-12 -17 -37 -34 -57 -40 -44 -12 -85 -48 -111 -100 -39
-76 -20 -163 49 -222 53 -45 113 -58 244 -55 98 2 110 0 123 -17 22 -31 17
-74 -12 -101 -36 -34 -91 -33 -145 1 -38 24 -42 24 -65 9 -13 -8 -24 -20 -24
-25 0 -15 43 -79 87 -128 35 -40 40 -43 63 -32 14 6 30 21 35 33 6 11 24 25
40 30 59 19 123 75 150 132 30 64 31 98 6 151 -46 94 -122 126 -294 122 -114
-3 -119 -2 -138 21 -26 32 -24 57 7 86 33 30 49 31 110 4 89 -38 124 1 63 71
-89 104 -96 107 -131 60z"/>
<path d="M5912 8508 c-7 -7 -12 -22 -12 -34 0 -12 -9 -28 -19 -35 -10 -8 -56
-46 -102 -85 -97 -81 -234 -185 -267 -203 -18 -10 -26 -10 -38 0 -12 9 -20 9
-39 -1 -29 -16 -33 -50 -7 -67 9 -6 46 -32 82 -57 36 -25 72 -46 81 -46 24 0
38 40 25 69 -9 21 -6 27 23 52 31 26 36 27 60 14 14 -7 43 -29 65 -48 34 -30
38 -37 31 -66 -5 -22 -19 -40 -46 -58 -60 -40 -53 -58 51 -125 48 -32 96 -58
105 -58 27 0 45 31 33 53 -12 24 -7 56 27 177 15 52 33 120 41 150 7 30 27
106 43 168 17 62 31 117 31 122 0 13 -120 90 -140 90 -9 0 -21 -5 -28 -12z
m-39 -255 c-8 -27 -18 -61 -22 -78 -9 -40 -31 -42 -66 -5 l-30 32 60 53 c32
29 62 52 66 49 4 -2 0 -25 -8 -51z"/>
<path d="M13675 8272 c-33 -21 -61 -45 -63 -55 -5 -24 26 -57 53 -57 27 0 43
-18 85 -95 18 -33 56 -96 83 -140 42 -66 51 -90 55 -137 4 -52 2 -57 -23 -74
-78 -51 -141 -1 -247 196 -19 36 -45 82 -57 103 -14 24 -21 55 -21 88 0 63
-16 71 -78 37 -26 -14 -63 -34 -82 -44 -58 -32 -65 -42 -50 -70 8 -15 22 -24
36 -24 26 0 55 -35 104 -125 58 -108 129 -221 155 -247 63 -63 153 -75 240
-33 91 45 145 119 145 200 0 38 -28 91 -143 277 -77 123 -88 145 -83 173 14
75 -19 83 -109 27z"/>
<path d="M6290 8265 c-11 -13 -11 -23 0 -55 14 -44 13 -48 -101 -260 -86 -161
-107 -190 -139 -190 -33 0 -53 -21 -48 -50 3 -20 73 -70 121 -86 9 -4 17 -10
17 -15 0 -15 37 -10 50 6 8 9 10 25 5 42 -13 53 -7 76 61 208 65 128 90 158
77 95 -5 -29 14 -420 23 -451 2 -9 20 -25 39 -35 54 -29 56 -27 140 145 145
295 164 326 208 347 65 30 57 51 -35 98 -64 32 -80 37 -93 26 -17 -14 -19 -43
-5 -70 8 -15 -2 -41 -46 -127 -31 -59 -60 -109 -65 -111 -9 -4 -16 171 -11
298 2 46 -2 83 -10 98 -13 24 -135 102 -161 102 -8 0 -20 -7 -27 -15z"/>
<path d="M6870 7958 c-25 -27 -25 -29 0 -61 l20 -25 -33 -74 c-19 -40 -46
-100 -60 -133 -86 -199 -106 -237 -137 -248 -31 -12 -48 -45 -35 -67 8 -12
150 -80 169 -80 6 0 17 -5 24 -12 7 -7 51 -14 101 -16 78 -4 95 -2 135 19 83
41 151 129 205 262 6 15 11 64 11 108 0 94 -17 136 -79 192 -34 30 -116 77
-136 77 -3 0 -41 18 -85 39 l-80 40 -20 -21z m206 -183 c50 -53 56 -136 18
-233 -56 -141 -112 -192 -209 -192 -47 0 -47 0 -42 29 3 15 17 52 30 82 13 30
30 70 37 89 7 19 26 63 42 98 15 35 28 70 28 77 0 8 4 16 9 19 4 3 11 19 14
36 9 40 32 39 73 -5z"/>
<path d="M12790 7844 c-91 -35 -172 -68 -180 -73 -33 -18 -18 -71 21 -71 20 0
53 -41 63 -80 4 -14 11 -34 16 -45 4 -11 22 -60 40 -110 17 -49 35 -97 39
-105 4 -8 16 -41 26 -74 15 -46 16 -62 7 -77 -15 -24 -15 -52 0 -67 17 -17 36
-15 83 8 22 11 47 19 55 20 9 0 20 4 25 9 6 4 46 23 90 40 156 63 147 56 139
109 -9 64 -33 139 -50 153 -20 16 -64 -31 -64 -70 0 -43 -17 -74 -51 -94 -36
-20 -73 -22 -86 -4 -12 15 -53 138 -53 159 0 22 23 29 73 22 65 -9 74 9 46 85
-26 72 -40 87 -67 72 -11 -6 -22 -17 -25 -25 -3 -8 -20 -22 -36 -31 -28 -14
-31 -14 -40 3 -16 29 -51 126 -51 139 0 7 17 20 37 28 36 15 40 15 88 -11 55
-28 92 -29 109 -1 9 14 5 29 -18 73 -29 56 -51 84 -64 84 -4 0 -81 -30 -172
-66z"/>
<path d="M7442 7728 c-16 -16 -15 -43 3 -58 26 -22 23 -42 -41 -240 -30 -92
-39 -123 -54 -179 -8 -31 -26 -58 -57 -88 -50 -49 -48 -66 10 -79 18 -3 37
-10 42 -13 6 -4 29 -13 53 -20 34 -9 47 -10 58 0 18 15 18 53 -1 69 -17 14
-20 57 -6 92 5 13 24 80 42 151 19 70 37 127 41 127 4 0 8 -78 8 -174 0 -207
4 -230 37 -245 24 -11 29 -8 72 36 25 27 82 102 125 166 44 65 84 121 89 124
13 8 7 -24 -37 -191 -20 -77 -36 -141 -36 -142 0 -2 -18 -21 -40 -43 -61 -60
-53 -68 107 -110 39 -10 76 -15 82 -12 5 4 14 18 20 33 8 21 6 29 -10 44 -21
18 -25 67 -10 106 9 22 17 51 56 196 43 159 52 178 85 192 16 7 30 21 32 35 6
30 -1 41 -32 47 -14 3 -59 15 -100 26 -41 11 -80 17 -87 15 -8 -3 -48 -55 -90
-117 -42 -61 -80 -113 -83 -116 -4 -3 -9 -13 -13 -22 -17 -46 -25 -5 -29 145
-3 89 -8 169 -12 177 -3 8 -34 24 -69 34 -34 11 -66 23 -72 27 -22 15 -71 19
-83 7z"/>
<path d="M12425 7694 c-128 -37 -154 -46 -159 -60 -8 -22 10 -51 42 -66 22
-11 29 -24 40 -73 19 -85 19 -96 2 -105 -24 -13 -93 -31 -125 -33 -30 -2 -30
-2 -43 78 -10 57 -10 86 -3 103 29 63 6 86 -69 65 -30 -8 -75 -20 -100 -26
-38 -10 -45 -16 -48 -39 -3 -21 3 -30 25 -42 30 -15 41 -44 78 -201 9 -38 20
-83 25 -100 4 -16 14 -62 21 -101 11 -69 11 -73 -11 -103 -51 -73 6 -87 174
-43 72 19 85 61 28 93 -23 13 -30 28 -49 109 -24 105 -25 103 42 120 22 5 53
14 68 19 25 9 29 7 38 -17 6 -15 17 -55 24 -89 7 -34 16 -66 19 -71 3 -5 -1
-15 -9 -22 -20 -16 -20 -76 0 -84 18 -7 205 51 224 70 13 11 13 17 1 39 -7 14
-21 25 -30 25 -24 0 -35 16 -55 80 -10 30 -20 62 -23 70 -3 8 -11 38 -18 65
-7 28 -17 68 -24 90 -33 114 -35 151 -16 210 4 11 1 27 -6 36 -12 15 -18 16
-63 3z"/>
<path d="M11715 7509 c-73 -16 -129 -27 -211 -42 -44 -7 -86 -17 -92 -21 -8
-5 -12 -40 -12 -100 0 -79 3 -96 19 -110 31 -28 57 -7 65 53 5 35 13 55 29 66
33 23 46 18 52 -22 3 -21 10 -54 15 -73 5 -19 16 -75 25 -125 9 -49 20 -112
25 -138 14 -68 12 -103 -5 -117 -17 -14 -20 -65 -6 -75 11 -6 135 10 199 27
40 10 43 13 40 42 -2 21 -11 34 -27 43 -37 18 -40 26 -80 243 -6 30 -20 98
-31 150 -11 52 -20 96 -20 98 0 2 17 2 37 0 30 -2 42 -10 61 -38 43 -65 50
-72 72 -60 25 13 25 42 1 135 l-19 70 -48 2 c-27 0 -67 -3 -89 -8z"/>
<path d="M8343 7479 c-16 -16 -16 -34 -1 -59 14 -21 1 -50 -92 -215 -22 -38
-58 -106 -81 -150 -49 -96 -56 -105 -78 -105 -21 0 -61 -40 -61 -62 0 -19 39
-37 97 -45 24 -3 46 -10 49 -14 8 -14 34 -11 50 5 17 18 18 50 2 76 -11 16 -9
26 7 56 16 30 23 35 45 30 75 -15 108 -23 118 -30 21 -13 14 -65 -12 -89 -30
-28 -40 -61 -24 -75 7 -5 45 -15 83 -22 39 -6 82 -14 98 -17 15 -3 34 0 42 7
19 16 19 59 1 74 -18 13 -32 158 -42 424 -4 111 -11 185 -18 189 -9 6 -47 14
-136 29 -22 4 -40 1 -47 -7z m56 -315 l2 -87 -46 5 c-25 3 -48 8 -51 11 -8 8
76 168 85 163 4 -3 9 -44 10 -92z"/>
<path d="M8804 7423 c-23 -16 -25 -49 -3 -77 21 -26 21 -31 10 -149 -16 -176
-29 -299 -36 -325 -3 -12 -19 -34 -35 -49 -32 -28 -38 -54 -17 -71 7 -6 53
-17 103 -23 49 -6 106 -14 128 -16 62 -8 150 24 207 75 80 71 109 152 109 302
0 119 -13 167 -59 222 -51 60 -110 82 -271 98 -47 5 -94 12 -105 15 -11 3 -25
2 -31 -2z m253 -145 c43 -47 53 -83 53 -184 0 -126 -20 -193 -72 -240 -30 -27
-46 -34 -79 -34 l-42 0 7 58 c20 169 39 333 43 375 5 45 6 47 37 47 21 0 40
-8 53 -22z"/>
<path d="M10940 7383 c-24 -3 -50 -9 -57 -15 -19 -16 -16 -46 8 -66 11 -9 27
-28 34 -42 13 -25 33 -250 22 -250 -6 0 -114 162 -180 270 -22 36 -45 69 -51
73 -12 9 -160 2 -177 -8 -5 -4 -9 -19 -9 -35 0 -22 7 -32 27 -42 34 -16 42
-52 43 -188 0 -52 5 -135 11 -185 11 -101 8 -126 -22 -154 -14 -13 -19 -28
-17 -47 l3 -29 75 0 c95 0 126 9 133 37 7 26 -8 58 -29 58 -26 0 -42 61 -49
198 -6 98 -5 132 4 132 6 0 14 -7 18 -16 3 -8 48 -78 99 -155 52 -77 94 -144
94 -149 0 -6 3 -10 8 -10 4 0 15 -14 24 -30 14 -25 23 -30 57 -30 77 0 81 11
61 148 -5 37 -14 135 -20 217 -6 83 -13 161 -16 175 -4 17 3 37 21 64 14 21
25 48 23 60 -3 18 -10 21 -48 22 -25 1 -65 -1 -90 -3z"/>
<path d="M9406 7363 c-14 -14 -5 -61 15 -79 21 -18 21 -24 15 -189 -8 -213
-22 -314 -48 -338 -29 -28 -20 -69 17 -79 38 -11 349 -29 368 -22 22 8 39 73
35 139 -3 51 -6 60 -23 63 -21 3 -36 -9 -81 -65 -21 -27 -33 -33 -64 -33 -65
0 -77 20 -71 120 7 98 20 110 72 66 41 -34 65 -22 74 37 16 105 -8 140 -67 97
-50 -37 -63 -25 -61 55 1 39 2 85 2 103 1 25 5 32 21 32 35 0 75 -26 104 -68
26 -38 56 -54 84 -44 17 5 17 176 0 189 -15 11 -381 26 -392 16z"/>
<path d="M10202 7338 c-16 -16 -16 -68 1 -68 8 0 21 -8 30 -18 15 -16 17 -49
17 -255 l0 -237 -30 -27 c-16 -14 -30 -34 -30 -43 0 -33 22 -40 135 -40 120 0
135 6 135 50 0 18 -7 30 -24 38 -31 14 -36 56 -36 302 l0 197 30 26 c64 57 28
84 -113 86 -70 1 -106 -2 -115 -11z"/>
</g>
</svg>
